<?xml version="1.0" encoding="UTF-8" standalone="no"?>
<!-- Created with Inkscape (http://www.inkscape.org/) -->

<svg
   width="139.35445mm"
   height="179.67145mm"
   viewBox="0 0 139.35445 179.67145"
   version="1.1"
   id="svg1"
   xmlns="http://www.w3.org/2000/svg"
   xmlns:svg="http://www.w3.org/2000/svg">
  <defs
     id="defs1" />
  <g
     id="layer1"
     transform="translate(-35.454169,-58.737501)">
    <g
       id="g1"
       transform="matrix(0.35277777,0,0,0.35277777,-22.391491,21.068665)">
      <path
         fill="#1c1431"
         stroke="#1c1431"
         stroke-width="0.09375"
         opacity="0.38"
         d="m 359.62799,106.82999 c 1.74,0.26 4.41,-0.26 3.87,2.42 -0.51,-0.07 -1.54,-0.2 -2.05,-0.27 l -1.34,-0.05 c -0.52,1.03 -1.01,2.07 -1.47,3.14 -0.13,-1.82 0.43,-3.55 0.99,-5.24 z"
         id="path3" />
      <path
         fill="#a072d6"
         stroke="#a072d6"
         stroke-width="0.09375"
         opacity="1"
         d="m 358.63799,112.06999 c 0.46,-1.07 0.95,-2.11 1.47,-3.14 l 1.34,0.05 -0.17,0.74 c -0.8,2.52 -1.16,5.16 -1.1,7.8 -0.15,23.01 -1.55,45.96 -2.67,68.93 0.1,12.04 -1.44,24.03 -1.05,36.08 -0.43,3.55 0.99,8.15 -2.24,10.71 -23.94,20.87 -47.78,41.86 -71.91,62.5 4.62,-10.85 8.92,-21.84 13.79,-32.6 6.51,-14.12 11.76,-28.78 18.26,-42.91 8.5,-20.73 17.14,-41.4 25.77,-62.07 2.26,-5.99 5.87,-11.6 6.4,-18.11 2.77,-7.46 6.64,-14.48 9.53,-21.9 0.01,-0.04 0.04,-0.11 0.06,-0.15 0.87,-1.97 1.71,-3.95 2.52,-5.93 z"
         id="path4" />
      <path
         fill="#6233a4"
         stroke="#6233a4"
         stroke-width="0.09375"
         opacity="1"
         d="m 361.44799,108.97999 c 0.51,0.07 1.54,0.2 2.05,0.27 0.89,4.18 3.18,7.84 4.54,11.87 15.7,35.17 31.52,70.3 47.05,105.55 9.26,19.94 17.65,40.26 27.37,59.99 2.51,5.23 4.49,10.69 7.06,15.9 0.82,1.6 0.7,3.46 0.87,5.21 -3.25,-2.04 -6.16,-4.54 -9.02,-7.08 -15.54,-13.19 -31.2,-26.22 -46.87,-39.25 -10.59,-8.57 -20.78,-17.63 -31.64,-25.85 11.05,38.46 23.49,76.53 35.34,114.76 3.82,11.24 6.72,22.79 11.1,33.83 14.31,-22.84 27.12,-46.63 41.13,-69.67 0.92,-1.52 1.54,-3.18 2.1,-4.85 l -0.99,-0.17 c 0.99,-1.7 3.51,-1.6 4.24,-3.54 13.06,-21.98 27.43,-43.17 39.99,-65.45 0.57,0.29 1.72,0.87 2.3,1.16 -1.57,8.85 -2.17,17.83 -3.27,26.75 -1.94,19.36 -4.54,38.65 -6.44,58.02 -16.76,12.53 -33.63,24.93 -50.44,37.41 -9.62,7.28 -19.5,14.23 -28.82,21.9 -10.97,-34.06 -21.54,-68.25 -32.25,-102.4 -5.11,-16.44 -9.96,-32.97 -15.31,-49.33 -0.27,-41.43 0.24,-82.87 -0.26,-124.29 z"
         id="path5" />
      <path
         fill="#c196ed"
         stroke="#c196ed"
         stroke-width="0.09375"
         opacity="1"
         d="m 360.17799,117.51999 c -0.06,-2.64 0.3,-5.28 1.1,-7.8 0.5,41.42 -0.01,82.86 0.26,124.29 -0.08,0.29 -0.24,0.88 -0.32,1.17 -9.59,7.01 -18.34,15.1 -27.59,22.53 -14.66,12.37 -29.53,24.46 -44.04,37 -6.37,5.2 -12.74,10.41 -18.83,15.94 0.23,-1.37 0.45,-2.75 0.75,-4.1 14.45,-32.48 29.18,-64.85 43.72,-97.3 6.85,-16.01 14.27,-31.78 21.31,-47.7 3.46,-7.11 6.3,-14.51 9.99,-21.5 -0.53,6.51 -4.14,12.12 -6.4,18.11 -8.63,20.67 -17.27,41.34 -25.77,62.07 -6.5,14.13 -11.75,28.79 -18.26,42.91 -4.87,10.76 -9.17,21.75 -13.79,32.6 24.13,-20.64 47.97,-41.63 71.91,-62.5 3.23,-2.56 1.81,-7.16 2.24,-10.71 -0.39,-12.05 1.15,-24.04 1.05,-36.08 1.12,-22.97 2.52,-45.92 2.67,-68.93 z"
         id="path6" />
      <path
         fill="#1c1431"
         stroke="#1c1431"
         stroke-width="0.09375"
         opacity="0.38"
         d="m 356.05799,118.14999 c 0.01,-0.04 0.04,-0.11 0.06,-0.15 -0.02,0.04 -0.05,0.11 -0.06,0.15 z"
         id="path7" />
      <path
         fill="#a072d6"
         stroke="#a072d6"
         stroke-width="0.09375"
         opacity="1"
         d="m 454.25799,175.05999 c 0.43,-0.1 1.29,-0.3 1.72,-0.4 6.05,13.4 12.8,26.5 19.91,39.37 0.76,1.6 0.26,3.5 0.03,5.19 -6.83,10.93 -14.08,21.68 -19.9,33.21 -0.95,-0.24 -1.88,-0.48 -2.81,-0.71 -3.1,-9.23 -4.96,-18.84 -7.96,-28.1 -0.82,-3.3 -2.09,-6.59 -2.07,-10.02 0.64,-5.57 2.61,-10.87 4.08,-16.26 1.78,-6.75 3.9,-13.4 5.94,-20.07 0.27,-0.55 0.8,-1.66 1.06,-2.21 z"
         id="path8" />
      <path
         fill="#a072d6"
         stroke="#a072d6"
         stroke-width="0.09375"
         opacity="1"
         d="m 261.89799,192.68999 c 0.24,-0.82 0.48,-1.64 0.73,-2.46 5.38,11.6 8.6,24.03 13.58,35.78 0.86,2.41 2.71,4.83 1.67,7.49 -5.62,14.2 -11.9,28.11 -18.54,41.85 -3.92,-8.09 -8.34,-15.94 -12.42,-23.95 -2.22,-4.22 -4.17,-8.6 -6.84,-12.56 0.18,-1.61 0.09,-3.32 1.01,-4.73 7.23,-13.65 13.38,-27.86 20.81,-41.42 z"
         id="path9" />
      <path
         fill="#f7d495"
         stroke="#f7d495"
         stroke-width="0.09375"
         opacity="1"
         d="m 361.21799,235.17999 c 0.08,-0.29 0.24,-0.88 0.32,-1.17 5.35,16.36 10.2,32.89 15.31,49.33 10.71,34.15 21.28,68.34 32.25,102.4 -0.28,0.32 -0.85,0.96 -1.13,1.28 -13.18,-38.42 -26.56,-76.78 -39.88,-115.15 -1.94,-6.12 -3.82,-12.3 -6.75,-18.04 -2.26,4.28 -3.54,8.96 -5.05,13.54 -7.17,20.23 -14.08,40.54 -21.05,60.84 -5.16,15.41 -11.01,30.59 -15.84,46.11 -0.98,3.31 -2.16,6.56 -3.57,9.72 -0.13,-0.52 -0.39,-1.56 -0.52,-2.08 15.4,-48.89 30.7,-97.83 45.91,-146.78 z"
         id="path12" />
      <path
         fill="#a072d6"
         stroke="#a072d6"
         stroke-width="0.09375"
         opacity="1"
         d="m 333.62799,257.70999 c 9.25,-7.43 18,-15.52 27.59,-22.53 -15.21,48.95 -30.51,97.89 -45.91,146.78 -0.35,0.71 -1.06,2.12 -1.41,2.82 -6.28,-9.14 -11.27,-19.11 -17.05,-28.58 -9.01,-15.29 -17.7,-30.77 -26.91,-45.94 l -0.16,-0.26 c 0.56,-1.16 1.13,-2.31 1.73,-3.45 -0.3,1.35 -0.52,2.73 -0.75,4.1 6.09,-5.53 12.46,-10.74 18.83,-15.94 14.51,-12.54 29.38,-24.63 44.04,-37 z"
         id="path13" />
      <path
         fill="#a072d6"
         stroke="#a072d6"
         stroke-width="0.09375"
         opacity="1"
         d="m 362.85799,235.58999 c 10.86,8.22 21.05,17.28 31.64,25.85 15.67,13.03 31.33,26.06 46.87,39.25 2.86,2.54 5.77,5.04 9.02,7.08 0.29,0.43 0.86,1.29 1.15,1.72 l 0.99,0.17 c -0.56,1.67 -1.18,3.33 -2.1,4.85 -14.01,23.04 -26.82,46.83 -41.13,69.67 -4.38,-11.04 -7.28,-22.59 -11.1,-33.83 -11.85,-38.23 -24.29,-76.3 -35.34,-114.76 z"
         id="path14" />
      <path
         fill="#493575"
         stroke="#493575"
         stroke-width="0.09375"
         opacity="0.76"
         d="m 495.67799,239.04999 c 1.4,0.01 2.82,0.01 4.25,0.01 0.21,1.56 0.41,3.13 0.63,4.7 -0.53,-0.45 -1.59,-1.35 -2.11,-1.8 -0.1,-0.07 -0.29,-0.23 -0.38,-0.3 -0.58,-0.29 -1.73,-0.87 -2.3,-1.16 -0.03,-0.36 -0.07,-1.08 -0.09,-1.45 z"
         id="path15" />
      <path
         fill="#c196ed"
         stroke="#c196ed"
         stroke-width="0.09375"
         opacity="1"
         d="m 498.06799,241.65999 c 0.09,0.07 0.28,0.23 0.38,0.3 -1.76,12.82 -2.36,25.78 -3.45,38.67 -1.42,15.78 -2.36,31.6 -3.73,47.39 -0.73,-0.4 -2.18,-1.2 -2.91,-1.59 1.9,-19.37 4.5,-38.66 6.44,-58.02 1.1,-8.92 1.7,-17.9 3.27,-26.75 z"
         id="path16" />
      <path
         fill="#6233a4"
         stroke="#6233a4"
         stroke-width="0.09375"
         opacity="1"
         d="m 498.44799,241.95999 c 0.52,0.45 1.58,1.35 2.11,1.8 11.27,34.68 21.94,69.55 33.13,104.26 6.65,20.2 12.89,40.52 19.63,60.69 2.27,6.3 4.38,12.7 5.62,19.3 l -0.4,0.09 c -5.69,0.99 -10.97,3.37 -16.4,5.22 -24,8.22 -47.91,16.69 -71.88,25.02 -9.2,3.23 -18.56,6.13 -27.4,10.29 l -0.5,-0.64 c 1.48,-3.16 2.86,-6.35 4.28,-9.53 13.24,-28.37 26.65,-56.67 39.47,-85.23 13.09,10.54 26.96,20.09 40.46,30.09 8.16,5.77 16.05,11.93 24.38,17.46 -20.62,-17.71 -42.02,-34.56 -63.28,-51.5 1.43,-13.73 2.31,-27.52 3.6,-41.26 1.37,-15.79 2.31,-31.61 3.73,-47.39 1.09,-12.89 1.69,-25.85 3.45,-38.67 z"
         id="path17" />
      <path
         fill="#ebbf66"
         stroke="#ebbf66"
         stroke-width="0.09375"
         opacity="1"
         d="m 356.28799,267.36999 c 1.51,-4.58 2.79,-9.26 5.05,-13.54 2.93,5.74 4.81,11.92 6.75,18.04 13.32,38.37 26.7,76.73 39.88,115.15 -4.4,6.51 -8.27,13.36 -12.64,19.89 -1.89,-1.82 -3.05,-4.17 -4.02,-6.56 -9.58,-20.74 -19.16,-41.47 -28.58,-62.28 -0.86,0 -1.71,0 -2.56,0.01 -7.25,16.56 -15.12,32.85 -22.6,49.32 -3.04,6.51 -5.87,13.12 -9.19,19.5 -1.45,-1.08 -2.74,-2.36 -3.6,-3.95 -3.24,-5.52 -6.8,-10.82 -9.97,-16.37 0.34,-0.85 0.68,-1.7 1.02,-2.54 1.41,-3.16 2.59,-6.41 3.57,-9.72 4.83,-15.52 10.68,-30.7 15.84,-46.11 6.97,-20.3 13.88,-40.61 21.05,-60.84 z"
         id="path18" />
      <path
         fill="#6233a4"
         stroke="#6233a4"
         stroke-width="0.09375"
         opacity="1"
         d="m 216.06799,278.19999 c 0.66,-0.39 1.97,-1.15 2.63,-1.54 8.02,8.2 17.18,15.17 25.32,23.26 6.65,5.65 12.78,11.88 19.43,17.51 2.46,-2.1 4.57,-4.57 6.49,-7.17 9.21,15.17 17.9,30.65 26.91,45.94 5.78,9.47 10.77,19.44 17.05,28.58 -0.27,0.48 -0.5,0.98 -0.75,1.47 -7.75,-5.58 -15.6,-11.04 -23.57,-16.32 -0.81,-0.58 -1.63,-1.13 -2.45,-1.65 -16.29,-11.22 -32.77,-22.16 -49.15,-33.25 -2.73,-1.81 -5.34,-3.83 -8.25,-5.33 -3.91,-15.47 -7.53,-31 -11,-46.56 0.1,2.13 0.24,4.27 0.64,6.38 2.61,13.51 5.12,27.05 7.82,40.55 2.84,14.09 5.02,28.31 8.27,42.32 -15.73,11.97 -31.28,24.15 -47.09,36.02 -5.6,4.71 -11.87,8.56 -17.35,13.42 11.01,-6.78 21.56,-14.3 32.28,-21.54 11.4,-7.92 22.99,-15.59 34.07,-23.95 12.58,26.49 25.08,53.04 37.79,79.48 1.6,4.02 3.39,7.97 5.39,11.81 -1.65,2.03 -3.31,4.08 -4.89,6.17 1.23,-2.01 2.37,-4.06 3.55,-6.09 -18.7,-7.2 -37.79,-13.31 -56.65,-20.08 -13.17,-4.52 -26.29,-9.19 -39.49,-13.63 -6.08,-2.01 -12.03,-4.48 -18.31,-5.85 3.89,4.54 8.62,8.26 13.08,12.21 23.61,22.44 47.89,44.18 71.72,66.4 -6.7,8.57 -12.84,17.56 -19.45,26.2 -1.52,1.97 -2.91,4.04 -4.13,6.21 9.17,-9.67 17.53,-20.1 26.26,-30.17 2.26,1.12 4.82,0.94 7.27,0.96 10.18,-0.13 20.36,-0.07 30.53,0.07 -11.88,1.56 -23.9,0.15 -35.84,0.47 15.96,16.13 32.16,32.05 48.26,48.05 18.65,18.45 37.12,37.08 55.91,55.37 1.37,1.3 3.14,1.49 4.93,1.12 8.79,-8.09 16.86,-16.94 25.5,-25.2 26.62,-26.45 53.4,-52.74 79.85,-79.35 -11.25,-0.33 -22.58,1.13 -33.76,-0.45 11.22,-0.32 22.46,0.08 33.67,-0.27 0.52,-0.26 1.56,-0.77 2.08,-1.03 8.85,9.75 17.14,20.02 25.99,29.77 -7.04,-10.9 -15.13,-21.1 -22.82,-31.54 -0.12,-0.15 -0.36,-0.47 -0.48,-0.62 23.9,-22.03 48.05,-43.78 71.79,-65.98 4.5,-3.63 8.73,-7.58 12.83,-11.66 -2.02,7.39 -6.38,13.82 -9.5,20.76 -13.3,26.03 -26.32,52.2 -39.72,78.19 -2.66,5.56 -5.26,11.21 -8.92,16.2 -14.3,6.79 -28,14.74 -42.16,21.82 -30.9,15.94 -61.3,32.87 -92.1,48.98 -2.44,1.84 -5.99,1.77 -8.54,0.17 -17.07,-8.81 -33.78,-18.29 -50.83,-27.15 -14.59,-8.06 -29.53,-15.46 -44.19,-23.4 -11.97,-5.93 -23.42,-12.85 -35.41,-18.73 -5.9,-2.43 -7.9,-9.02 -10.71,-14.18 -14.8,-28.46 -29.21,-57.11 -43.56,-85.8 -2.5,-5.12 -5.45,-10.02 -7.64,-15.29 -1.7,-3.41 0.39,-7.03 1.14,-10.41 11.1,-31.84 22.43,-63.6 33.66,-95.4 5.77,-15.34 10.69,-30.99 16.6,-46.27 z"
         id="path19" />
      <path
         fill="#c196ed"
         stroke="#c196ed"
         stroke-width="0.09375"
         opacity="1"
         d="m 219.36799,289.51999 c -0.4,-2.11 -0.54,-4.25 -0.64,-6.38 3.47,15.56 7.09,31.09 11,46.56 -0.64,0.09 -1.91,0.27 -2.54,0.37 -2.7,-13.5 -5.21,-27.04 -7.82,-40.55 z"
         id="path20" />
      <path
         fill="#be90a9"
         stroke="#be90a9"
         stroke-width="0.09375"
         opacity="1"
         d="m 437.91799,363.83999 c 16.81,-12.48 33.68,-24.88 50.44,-37.41 -0.19,0.84 -0.36,1.7 -0.5,2.56 -11.61,6.63 -21.54,15.74 -32.52,23.31 -8.1,6.25 -16.57,12 -24.58,18.36 -5.71,4.47 -12.07,8.16 -17.1,13.45 1.75,-0.1 3.53,-0.17 5.29,-0.36 -2.85,0.53 -5.66,1.28 -8.44,2.05 0.33,2 0.67,4.02 1.4,5.92 5.12,12.62 9.84,25.39 15.36,37.84 4.72,10.54 8.04,21.64 12.8,32.17 0.57,1.17 1.43,2.17 2.22,3.22 1.48,-2.15 2.99,-4.27 4.35,-6.49 -1.42,3.18 -2.8,6.37 -4.28,9.53 l -0.57,1.14 c -6.56,-13.33 -10.8,-27.64 -16.89,-41.18 -4.57,-10.58 -8.78,-21.31 -12.97,-32.04 -0.83,-2.06 -1.63,-4.15 -2.81,-6.04 -1.48,-0.1 -2.08,1.39 -2.82,2.37 -3.61,5.54 -6.79,11.37 -10.93,16.54 -4.2,-2.7 -5.18,-7.94 -7.32,-12.1 -6.87,-14.45 -13.55,-28.98 -20.35,-43.45 -1.85,-3.78 -3.21,-7.83 -5.6,-11.31 -1.62,-0.63 -2.01,1.37 -2.72,2.36 -6.08,11.8 -11.16,24.07 -16.89,36.04 -2.99,6.94 -6.55,13.62 -9.48,20.59 -1.16,2.85 -2.77,5.48 -4.67,7.9 -6.2,-5.15 -8.93,-13.17 -13.98,-19.33 -6.78,13.58 -11.51,28.08 -17.73,41.93 -5.31,12.39 -9.52,25.27 -15.47,37.37 l -0.61,-1.15 c -2,-3.84 -3.79,-7.79 -5.39,-11.81 1.87,2.82 2.9,6.66 6.29,8.03 4.63,-9.08 7.83,-18.78 11.51,-28.25 3.63,-7.27 6.01,-15.06 9.36,-22.45 3.84,-8.52 6.96,-17.34 10.4,-26.03 l 0.43,-0.87 c 0.25,-0.49 0.48,-0.99 0.75,-1.47 0.35,-0.7 1.06,-2.11 1.41,-2.82 0.13,0.52 0.39,1.56 0.52,2.08 -0.34,0.84 -0.68,1.69 -1.02,2.54 3.17,5.55 6.73,10.85 9.97,16.37 0.86,1.59 2.15,2.87 3.6,3.95 3.32,-6.38 6.15,-12.99 9.19,-19.5 7.48,-16.47 15.35,-32.76 22.6,-49.32 0.85,-0.01 1.7,-0.01 2.56,-0.01 9.42,20.81 19,41.54 28.58,62.28 0.97,2.39 2.13,4.74 4.02,6.56 4.37,-6.53 8.24,-13.38 12.64,-19.89 0.28,-0.32 0.85,-0.96 1.13,-1.28 9.32,-7.67 19.2,-14.62 28.82,-21.9 z"
         id="path21" />
      <path
         fill="#f7d495"
         stroke="#f7d495"
         stroke-width="0.09375"
         opacity="1"
         d="m 488.35799,326.42999 c 0.73,0.39 2.18,1.19 2.91,1.59 -1.29,13.74 -2.17,27.53 -3.6,41.26 -0.3,0.66 -0.9,1.98 -1.19,2.64 -0.42,0.03 -1.24,0.1 -1.65,0.13 -7.82,0.29 -15.39,2.45 -23.06,3.79 -14.29,2.55 -28.48,5.66 -42.82,7.91 5.69,-2.31 11.77,-3.37 17.67,-5.02 15.8,-4.34 31.76,-8.09 47.49,-12.68 1.67,-12.31 2.62,-24.7 3.75,-37.06 0.14,-0.86 0.31,-1.72 0.5,-2.56 z"
         id="path22" />
      <path
         fill="#f7d495"
         stroke="#f7d495"
         stroke-width="0.09375"
         opacity="1"
         d="m 227.18799,330.06999 c 0.63,-0.1 1.9,-0.28 2.54,-0.37 2.91,1.5 5.52,3.52 8.25,5.33 16.38,11.09 32.86,22.03 49.15,33.25 -5.85,-1.65 -10.05,-6.32 -15.13,-9.37 -14.08,-8.82 -27.3,-18.94 -41.48,-27.58 2.21,11.82 4.87,23.55 7.72,35.23 0.37,1.32 0.59,2.75 1.33,3.95 3.8,1.58 7.95,2.08 11.94,3.02 12.72,2.4 25.33,5.34 38.03,7.89 6.36,1.24 12.6,3.19 19.1,3.58 -5.44,-6.17 -13.88,-8.65 -19.06,-15.07 7.97,5.28 15.82,10.74 23.57,16.32 l -0.43,0.87 c -7.62,-2 -15.48,-2.73 -23.24,-3.98 -10.3,-1.65 -20.65,-2.95 -30.97,-4.45 -6.62,-0.92 -13.18,-2.36 -19.88,-2.61 2.23,7.61 6.63,14.31 9.6,21.61 6.99,14.92 14.19,29.74 21.2,44.66 2.09,4.41 4.76,8.62 5.73,13.47 -12.71,-26.44 -25.21,-52.99 -37.79,-79.48 -0.68,-1.31 -1.34,-2.61 -1.91,-3.95 -3.25,-14.01 -5.43,-28.23 -8.27,-42.32 z"
         id="path23" />
      <path
         fill="#dda74c"
         stroke="#dda74c"
         stroke-width="0.09375"
         opacity="1"
         d="m 455.33799,352.29999 c 10.98,-7.57 20.91,-16.68 32.52,-23.31 -1.13,12.36 -2.08,24.75 -3.75,37.06 -15.73,4.59 -31.69,8.34 -47.49,12.68 -5.9,1.65 -11.98,2.71 -17.67,5.02 -1.76,0.19 -3.54,0.26 -5.29,0.36 5.03,-5.29 11.39,-8.98 17.1,-13.45 8.01,-6.36 16.48,-12.11 24.58,-18.36 z"
         id="path24" />
      <path
         fill="#dda74c"
         stroke="#dda74c"
         stroke-width="0.09375"
         opacity="1"
         d="m 230.51799,331.32999 c 14.18,8.64 27.4,18.76 41.48,27.58 5.08,3.05 9.28,7.72 15.13,9.37 0.82,0.52 1.64,1.07 2.45,1.65 5.18,6.42 13.62,8.9 19.06,15.07 -6.5,-0.39 -12.74,-2.34 -19.1,-3.58 -12.7,-2.55 -25.31,-5.49 -38.03,-7.89 -3.99,-0.94 -8.14,-1.44 -11.94,-3.02 -0.74,-1.2 -0.96,-2.63 -1.33,-3.95 -2.85,-11.68 -5.51,-23.41 -7.72,-35.23 z"
         id="path25" />
      <path
         fill="#c196ed"
         stroke="#c196ed"
         stroke-width="0.09375"
         opacity="1"
         d="m 359.37799,344.27999 c 0.71,-0.99 1.1,-2.99 2.72,-2.36 2.39,3.48 3.75,7.53 5.6,11.31 6.8,14.47 13.48,29 20.35,43.45 2.14,4.16 3.12,9.4 7.32,12.1 4.14,-5.17 7.32,-11 10.93,-16.54 0.74,-0.98 1.34,-2.47 2.82,-2.37 1.18,1.89 1.98,3.98 2.81,6.04 4.19,10.73 8.4,21.46 12.97,32.04 6.09,13.54 10.33,27.85 16.89,41.18 -6.18,11.56 -12.5,23.03 -18.86,34.49 -1.16,2.11 -2.29,4.25 -3.44,6.37 -10.64,18.99 -20.76,38.27 -31.18,57.39 -8.4,15.84 -17.45,31.39 -25.01,47.66 -1.79,0.37 -3.56,0.18 -4.93,-1.12 -0.58,-3.97 -2.33,-7.6 -4.37,-11.01 -16.96,-30.9 -33.41,-62.08 -50.56,-92.88 -0.73,-1.31 -1.43,-2.62 -2.13,-3.93 -2.85,-5.11 -5.44,-10.37 -8.6,-15.29 -3.4,-7.57 -7.86,-14.6 -11.55,-22.03 5.95,-12.1 10.16,-24.98 15.47,-37.37 6.22,-13.85 10.95,-28.35 17.73,-41.93 5.05,6.16 7.78,14.18 13.98,19.33 1.9,-2.42 3.51,-5.05 4.67,-7.9 2.93,-6.97 6.49,-13.65 9.48,-20.59 5.73,-11.97 10.81,-24.24 16.89,-36.04 m -4.74,61.48 c -1.12,0.54 -1.92,1.38 -2.39,2.52 -8.71,17.56 -17.61,35.04 -26.4,52.57 -1.38,2.99 -4.14,6.35 -2.28,9.74 11.85,23.65 24.39,47 36.14,70.69 0.78,0.16 2.35,0.5 3.13,0.67 2.44,-6.21 6.12,-11.85 9.06,-17.83 8.21,-16.68 16.95,-33.09 25.48,-49.6 1.88,-3.26 2.56,-7.45 0.93,-10.94 -11.29,-22.39 -22.58,-44.79 -33.64,-67.29 -0.74,-1.53 -1.72,-2.93 -3.11,-3.91 -2.69,4.25 -4.72,8.86 -6.92,13.38 z"
         id="path26" />
      <path
         fill="#a072d6"
         stroke="#a072d6"
         stroke-width="0.09375"
         opacity="1"
         d="m 487.66799,369.27999 c 21.26,16.94 42.66,33.79 63.28,51.5 -8.33,-5.53 -16.22,-11.69 -24.38,-17.46 -13.5,-10 -27.37,-19.55 -40.46,-30.09 -0.32,-0.3 -0.96,-0.89 -1.28,-1.18 0.41,-0.03 1.23,-0.1 1.65,-0.13 0.29,-0.66 0.89,-1.98 1.19,-2.64 z"
         id="path27" />
      <path
         fill="#dda74c"
         stroke="#dda74c"
         stroke-width="0.09375"
         opacity="1"
         d="m 461.76799,375.83999 c 7.67,-1.34 15.24,-3.5 23.06,-3.79 0.32,0.29 0.96,0.88 1.28,1.18 -12.82,28.56 -26.23,56.86 -39.47,85.23 -1.36,2.22 -2.87,4.34 -4.35,6.49 -0.79,-1.05 -1.65,-2.05 -2.22,-3.22 -4.76,-10.53 -8.08,-21.63 -12.8,-32.17 -5.52,-12.45 -10.24,-25.22 -15.36,-37.84 -0.73,-1.9 -1.07,-3.92 -1.4,-5.92 2.78,-0.77 5.59,-1.52 8.44,-2.05 14.34,-2.25 28.53,-5.36 42.82,-7.91 z"
         id="path28" />
      <path
         fill="#a072d6"
         stroke="#a072d6"
         stroke-width="0.09375"
         opacity="1"
         d="m 188.36799,408.40999 c 15.81,-11.87 31.36,-24.05 47.09,-36.02 0.57,1.34 1.23,2.64 1.91,3.95 -11.08,8.36 -22.67,16.03 -34.07,23.95 -10.72,7.24 -21.27,14.76 -32.28,21.54 5.48,-4.86 11.75,-8.71 17.35,-13.42 z"
         id="path29" />
      <path
         fill="#dda74c"
         stroke="#dda74c"
         stroke-width="0.09375"
         opacity="1"
         d="m 238.62799,376.07999 c 6.7,0.25 13.26,1.69 19.88,2.61 10.32,1.5 20.67,2.8 30.97,4.45 7.76,1.25 15.62,1.98 23.24,3.98 -3.44,8.69 -6.56,17.51 -10.4,26.03 -3.35,7.39 -5.73,15.18 -9.36,22.45 -3.68,9.47 -6.88,19.17 -11.51,28.25 -3.39,-1.37 -4.42,-5.21 -6.29,-8.03 -0.97,-4.85 -3.64,-9.06 -5.73,-13.47 -7.01,-14.92 -14.21,-29.74 -21.2,-44.66 -2.97,-7.3 -7.37,-14 -9.6,-21.61 z"
         id="path30" />
      <path
         fill="#f7d495"
         stroke="#f7d495"
         stroke-width="0.09375"
         opacity="1"
         d="m 354.63799,405.75999 c 2.2,-4.52 4.23,-9.13 6.92,-13.38 12.16,25.22 24.88,50.17 37.4,75.22 -2.19,6.5 -5.79,12.38 -8.92,18.46 -8.39,15.98 -16.45,32.14 -24.83,48.13 -1.43,2.41 -2.22,5.53 -4.87,6.93 -0.52,-2.21 -1.2,-4.36 -2.29,-6.33 -9.54,-18.16 -18.72,-36.5 -28.23,-54.67 -1.86,-3.89 -4.21,-7.57 -5.56,-11.68 0.31,-3.36 2.55,-6.19 3.89,-9.22 8.77,-17.85 17.99,-35.48 26.49,-53.46 m 6.5,-3.31 c -8.49,18.21 -17.86,35.99 -26.71,54.04 -1.83,3.96 -4.42,7.63 -5.66,11.82 1.24,3.77 3.45,7.12 5.17,10.68 8.92,17.17 17.71,34.4 26.58,51.59 0.56,0.94 1.17,0.84 1.82,-0.29 10.22,-19.73 20.65,-39.37 30.78,-59.15 0.71,-1.46 1.72,-3.18 0.6,-4.71 -8.77,-17.29 -17.55,-34.58 -26.19,-51.93 -2.13,-4.02 -3.55,-8.46 -6.39,-12.05 z"
         id="path31" />
      <path
         fill="#be90a9"
         stroke="#be90a9"
         stroke-width="0.09375"
         opacity="1"
         d="m 361.55799,392.37999 c 1.39,0.98 2.37,2.38 3.11,3.91 11.06,22.5 22.35,44.9 33.64,67.29 1.63,3.49 0.95,7.68 -0.93,10.94 -8.53,16.51 -17.27,32.92 -25.48,49.6 -2.94,5.98 -6.62,11.62 -9.06,17.83 -0.78,-0.17 -2.35,-0.51 -3.13,-0.67 -11.75,-23.69 -24.29,-47.04 -36.14,-70.69 -1.86,-3.39 0.9,-6.75 2.28,-9.74 8.79,-17.53 17.69,-35.01 26.4,-52.57 0.47,-1.14 1.27,-1.98 2.39,-2.52 -8.5,17.98 -17.72,35.61 -26.49,53.46 -1.34,3.03 -3.58,5.86 -3.89,9.22 1.35,4.11 3.7,7.79 5.56,11.68 9.51,18.17 18.69,36.51 28.23,54.67 1.09,1.97 1.77,4.12 2.29,6.33 2.65,-1.4 3.44,-4.52 4.87,-6.93 8.38,-15.99 16.44,-32.15 24.83,-48.13 3.13,-6.08 6.73,-11.96 8.92,-18.46 -12.52,-25.05 -25.24,-50 -37.4,-75.22 z"
         id="path32" />
      <path
         fill="#dda74c"
         stroke="#dda74c"
         stroke-width="0.09375"
         opacity="1"
         d="m 361.13799,402.44999 c 2.84,3.59 4.26,8.03 6.39,12.05 8.64,17.35 17.42,34.64 26.19,51.93 1.12,1.53 0.11,3.25 -0.6,4.71 -10.13,19.78 -20.56,39.42 -30.78,59.15 -0.65,1.13 -1.26,1.23 -1.82,0.29 -8.87,-17.19 -17.66,-34.42 -26.58,-51.59 -1.72,-3.56 -3.93,-6.91 -5.17,-10.68 1.24,-4.19 3.83,-7.86 5.66,-11.82 8.85,-18.05 18.22,-35.83 26.71,-54.04 z"
         id="path33" />
      <path
         fill="#a072d6"
         stroke="#a072d6"
         stroke-width="0.09375"
         opacity="1"
         d="m 164.75799,428.14999 c 6.28,1.37 12.23,3.84 18.31,5.85 13.2,4.44 26.32,9.11 39.49,13.63 18.86,6.77 37.95,12.88 56.65,20.08 -1.18,2.03 -2.32,4.08 -3.55,6.09 -0.11,0.15 -0.33,0.46 -0.44,0.61 -4.63,2.99 -7.34,7.91 -10.93,11.94 -4.22,4.85 -8.1,9.99 -12.58,14.61 -8.51,-6.28 -16.14,-13.63 -24.3,-20.33 -13.11,-10.53 -25.57,-21.82 -38.6,-32.45 -3.58,-2.72 -6.63,-6.29 -10.97,-7.82 -4.46,-3.95 -9.19,-7.67 -13.08,-12.21 z"
         id="path34" />
      <path
         fill="#a072d6"
         stroke="#a072d6"
         stroke-width="0.09375"
         opacity="1"
         d="m 542.13799,433.31999 c 5.43,-1.85 10.71,-4.23 16.4,-5.22 l -0.59,0.61 c -4.1,4.08 -8.33,8.03 -12.83,11.66 -1.48,0.73 -2.99,1.4 -4.3,2.4 -14.16,11.12 -27.47,23.26 -41.49,34.55 -9.95,7.94 -18.94,17.01 -29.15,24.63 -3.76,-4.91 -7.83,-9.57 -11.9,-14.22 -4.96,-6.51 -10.26,-12.76 -15.42,-19.1 8.84,-4.16 18.2,-7.06 27.4,-10.29 23.97,-8.33 47.88,-16.8 71.88,-25.02 z"
         id="path35" />
      <path
         fill="#c196ed"
         stroke="#c196ed"
         stroke-width="0.09375"
         opacity="1"
         d="m 177.83799,440.35999 c 4.34,1.53 7.39,5.1 10.97,7.82 13.03,10.63 25.49,21.92 38.6,32.45 8.16,6.7 15.79,14.05 24.3,20.33 0.31,0.23 0.95,0.7 1.26,0.93 -0.93,1.87 -1.62,3.84 -2.34,5.81 -0.26,-0.24 -0.8,-0.71 -1.07,-0.94 -23.83,-22.22 -48.11,-43.96 -71.72,-66.4 z"
         id="path36" />
      <path
         fill="#c196ed"
         stroke="#c196ed"
         stroke-width="0.09375"
         opacity="1"
         d="m 540.81799,442.76999 c 1.31,-1 2.82,-1.67 4.3,-2.4 -23.74,22.2 -47.89,43.95 -71.79,65.98 -1.08,-1.45 -2.09,-2.94 -3.15,-4.4 10.21,-7.62 19.2,-16.69 29.15,-24.63 14.02,-11.29 27.33,-23.43 41.49,-34.55 z"
         id="path37" />
      <path
         fill="#f7d495"
         stroke="#f7d495"
         stroke-width="0.09375"
         opacity="1"
         d="m 275.65799,473.79999 c 1.58,-2.09 3.24,-4.14 4.89,-6.17 l 0.61,1.15 c 3.69,7.43 8.15,14.46 11.55,22.03 -5.64,-5.61 -8.38,-13.37 -12.15,-20.25 -3.42,3.9 -5.77,8.97 -10.58,11.41 1.85,-2.45 3.55,-5.01 5.24,-7.56 0.11,-0.15 0.33,-0.46 0.44,-0.61 z"
         id="path38" />
      <path
         fill="#ebbf66"
         stroke="#ebbf66"
         stroke-width="0.09375"
         opacity="1"
         d="m 441.78799,469.12999 0.57,-1.14 0.5,0.64 c 5.16,6.34 10.46,12.59 15.42,19.1 2.01,7.43 9.45,11.69 11.81,19.01 -6.23,0.17 -12.38,1.36 -18.62,1.31 -9.34,0.01 -18.69,0.19 -28.03,-0.2 -0.17,-1.41 -0.35,-2.83 -0.51,-4.23 6.36,-11.46 12.68,-22.93 18.86,-34.49 z"
         id="path39" />
      <path
         fill="#ebbf66"
         stroke="#ebbf66"
         stroke-width="0.09375"
         opacity="1"
         d="m 269.97799,481.96999 c 4.81,-2.44 7.16,-7.51 10.58,-11.41 3.77,6.88 6.51,14.64 12.15,20.25 3.16,4.92 5.75,10.18 8.6,15.29 -0.39,0.45 -1.17,1.34 -1.56,1.78 -15.31,0.04 -30.72,1.03 -45.92,-1.26 1.93,-7.77 9.62,-12.19 12.11,-19.68 1.27,-1.72 2.61,-3.39 4.04,-4.97 z"
         id="path40" />
      <path
         fill="#be90a9"
         stroke="#be90a9"
         stroke-width="0.09375"
         opacity="1"
         d="m 264.28799,486.34999 c 3.59,-4.03 6.3,-8.95 10.93,-11.94 -1.69,2.55 -3.39,5.11 -5.24,7.56 -1.43,1.58 -2.77,3.25 -4.04,4.97 -4.67,4.67 -8.68,9.94 -12.97,14.95 -0.31,-0.23 -0.95,-0.7 -1.26,-0.93 4.48,-4.62 8.36,-9.76 12.58,-14.61 z"
         id="path41" />
      <path
         fill="#f7d495"
         stroke="#f7d495"
         stroke-width="0.09375"
         opacity="1"
         d="m 252.96799,501.88999 c 4.29,-5.01 8.3,-10.28 12.97,-14.95 -2.49,7.49 -10.18,11.91 -12.11,19.68 15.2,2.29 30.61,1.3 45.92,1.26 0.39,-0.44 1.17,-1.33 1.56,-1.78 0.7,1.31 1.4,2.62 2.13,3.93 -4.47,0.06 -8.93,-0.14 -13.4,0 -10.17,-0.14 -20.35,-0.2 -30.53,-0.07 -2.45,-0.02 -5.01,0.16 -7.27,-0.96 -0.4,-0.33 -1.2,-0.98 -1.61,-1.3 0.72,-1.97 1.41,-3.94 2.34,-5.81 z"
         id="path42" />
      <path
         fill="#f7d495"
         stroke="#f7d495"
         stroke-width="0.09375"
         opacity="1"
         d="m 458.27799,487.72999 c 4.07,4.65 8.14,9.31 11.9,14.22 1.06,1.46 2.07,2.95 3.15,4.4 0.12,0.15 0.36,0.47 0.48,0.62 -1.35,-0.13 -2.18,1.08 -3.17,1.77 -0.52,0.26 -1.56,0.77 -2.08,1.03 -11.21,0.35 -22.45,-0.05 -33.67,0.27 -5.14,-0.18 -10.27,0.11 -15.4,-0.05 1.15,-2.12 2.28,-4.26 3.44,-6.37 0.16,1.4 0.34,2.82 0.51,4.23 9.34,0.39 18.69,0.21 28.03,0.2 6.24,0.05 12.39,-1.14 18.62,-1.31 -2.36,-7.32 -9.8,-11.58 -11.81,-19.01 z"
         id="path43" />
      <path
         fill="#a072d6"
         stroke="#a072d6"
         stroke-width="0.09375"
         opacity="1"
         d="m 470.63799,508.73999 c 0.99,-0.69 1.82,-1.9 3.17,-1.77 7.69,10.44 15.78,20.64 22.82,31.54 -8.85,-9.75 -17.14,-20.02 -25.99,-29.77 z"
         id="path45" />
      <path
         fill="#a072d6"
         stroke="#a072d6"
         stroke-width="0.09375"
         opacity="1"
         d="m 230.10799,532.95999 c 6.61,-8.64 12.75,-17.63 19.45,-26.2 0.27,0.23 0.81,0.7 1.07,0.94 0.41,0.32 1.21,0.97 1.61,1.3 -8.73,10.07 -17.09,20.5 -26.26,30.17 1.22,-2.17 2.61,-4.24 4.13,-6.21 z"
         id="path46" />
      <path
         fill="#a072d6"
         stroke="#a072d6"
         stroke-width="0.09375"
         opacity="1"
         d="m 254.19799,510.49999 c 11.94,-0.32 23.96,1.09 35.84,-0.47 4.47,-0.14 8.93,0.06 13.4,0 17.15,30.8 33.6,61.98 50.56,92.88 2.04,3.41 3.79,7.04 4.37,11.01 -18.79,-18.29 -37.26,-36.92 -55.91,-55.37 -16.1,-16 -32.3,-31.92 -48.26,-48.05 z"
         id="path47" />
      <path
         fill="#a072d6"
         stroke="#a072d6"
         stroke-width="0.09375"
         opacity="1"
         d="m 388.30799,567.37999 c 10.42,-19.12 20.54,-38.4 31.18,-57.39 5.13,0.16 10.26,-0.13 15.4,0.05 11.18,1.58 22.51,0.12 33.76,0.45 -26.45,26.61 -53.23,52.9 -79.85,79.35 -8.64,8.26 -16.71,17.11 -25.5,25.2 7.56,-16.27 16.61,-31.82 25.01,-47.66 z"
         id="path48" />
    </g>
  </g>
</svg>
