<?xml version="1.0" encoding="UTF-8" standalone="no"?>
<svg
   width="1024pt"
   height="1024pt"
   viewBox="0 0 1024 1024"
   version="1.1"
   id="svg49"
   sodipodi:docname="icon.svg"
   inkscape:version="1.4.3 (0d15f75, 2025-12-25)"
   inkscape:export-filename="icon.svg"
   inkscape:export-xdpi="96"
   inkscape:export-ydpi="96"
   xmlns:inkscape="http://www.inkscape.org/namespaces/inkscape"
   xmlns:sodipodi="http://sodipodi.sourceforge.net/DTD/sodipodi-0.dtd"
   xmlns="http://www.w3.org/2000/svg"
   xmlns:svg="http://www.w3.org/2000/svg">
  <defs
     id="defs49" />
  <sodipodi:namedview
     id="namedview49"
     pagecolor="#ffffff"
     bordercolor="#000000"
     borderopacity="0.25"
     inkscape:showpageshadow="2"
     inkscape:pageopacity="0.0"
     inkscape:pagecheckerboard="0"
     inkscape:deskcolor="#d1d1d1"
     inkscape:document-units="pt"
     inkscape:zoom="0.61157227"
     inkscape:cx="714.55169"
     inkscape:cy="726.81516"
     inkscape:window-width="1920"
     inkscape:window-height="984"
     inkscape:window-x="1920"
     inkscape:window-y="30"
     inkscape:window-maximized="0"
     inkscape:current-layer="svg49" />
  <g
     id="g1">
    <path
       fill="#1c1431"
       stroke="#1c1431"
       stroke-width="0.09375"
       opacity="0.38"
       d=" M 510.15 257.32 C 511.89 257.58 514.56 257.06 514.02 259.74 C 513.51 259.67 512.48 259.54 511.97 259.47 L 510.63 259.42 C 510.11 260.45 509.62 261.49 509.16 262.56 C 509.03 260.74 509.59 259.01 510.15 257.32 Z"
       id="path3" />
    <path
       fill="#a072d6"
       stroke="#a072d6"
       stroke-width="0.09375"
       opacity="1.00"
       d=" M 509.16 262.56 C 509.62 261.49 510.11 260.45 510.63 259.42 L 511.97 259.47 L 511.80 260.21 C 511.00 262.73 510.64 265.37 510.70 268.01 C 510.55 291.02 509.15 313.97 508.03 336.94 C 508.13 348.98 506.59 360.97 506.98 373.02 C 506.55 376.57 507.97 381.17 504.74 383.73 C 480.80 404.60 456.96 425.59 432.83 446.23 C 437.45 435.38 441.75 424.39 446.62 413.63 C 453.13 399.51 458.38 384.85 464.88 370.72 C 473.38 349.99 482.02 329.32 490.65 308.65 C 492.91 302.66 496.52 297.05 497.05 290.54 C 499.82 283.08 503.69 276.06 506.58 268.64 C 506.59 268.60 506.62 268.53 506.64 268.49 C 507.51 266.52 508.35 264.54 509.16 262.56 Z"
       id="path4" />
    <path
       fill="#6233a4"
       stroke="#6233a4"
       stroke-width="0.09375"
       opacity="1.00"
       d=" M 511.97 259.47 C 512.48 259.54 513.51 259.67 514.02 259.74 C 514.91 263.92 517.20 267.58 518.56 271.61 C 534.26 306.78 550.08 341.91 565.61 377.16 C 574.87 397.10 583.26 417.42 592.98 437.15 C 595.49 442.38 597.47 447.84 600.04 453.05 C 600.86 454.65 600.74 456.51 600.91 458.26 C 597.66 456.22 594.75 453.72 591.89 451.18 C 576.35 437.99 560.69 424.96 545.02 411.93 C 534.43 403.36 524.24 394.30 513.38 386.08 C 524.43 424.54 536.87 462.61 548.72 500.84 C 552.54 512.08 555.44 523.63 559.82 534.67 C 574.13 511.83 586.94 488.04 600.95 465.00 C 601.87 463.48 602.49 461.82 603.05 460.15 L 602.06 459.98 C 603.05 458.28 605.57 458.38 606.30 456.44 C 619.36 434.46 633.73 413.27 646.29 390.99 C 646.86 391.28 648.01 391.86 648.59 392.15 C 647.02 401.00 646.42 409.98 645.32 418.90 C 643.38 438.26 640.78 457.55 638.88 476.92 C 622.12 489.45 605.25 501.85 588.44 514.33 C 578.82 521.61 568.94 528.56 559.62 536.23 C 548.65 502.17 538.08 467.98 527.37 433.83 C 522.26 417.39 517.41 400.86 512.06 384.50 C 511.79 343.07 512.30 301.63 511.80 260.21 L 511.97 259.47 Z"
       id="path5" />
    <path
       fill="#c196ed"
       stroke="#c196ed"
       stroke-width="0.09375"
       opacity="1.00"
       d=" M 510.70 268.01 C 510.64 265.37 511.00 262.73 511.80 260.21 C 512.30 301.63 511.79 343.07 512.06 384.50 C 511.98 384.79 511.82 385.38 511.74 385.67 C 502.15 392.68 493.40 400.77 484.15 408.20 C 469.49 420.57 454.62 432.66 440.11 445.20 C 433.74 450.40 427.37 455.61 421.28 461.14 C 421.51 459.77 421.73 458.39 422.03 457.04 C 436.48 424.56 451.21 392.19 465.75 359.74 C 472.60 343.73 480.02 327.96 487.06 312.04 C 490.52 304.93 493.36 297.53 497.05 290.54 C 496.52 297.05 492.91 302.66 490.65 308.65 C 482.02 329.32 473.38 349.99 464.88 370.72 C 458.38 384.85 453.13 399.51 446.62 413.63 C 441.75 424.39 437.45 435.38 432.83 446.23 C 456.96 425.59 480.80 404.60 504.74 383.73 C 507.97 381.17 506.55 376.57 506.98 373.02 C 506.59 360.97 508.13 348.98 508.03 336.94 C 509.15 313.97 510.55 291.02 510.70 268.01 Z"
       id="path6" />
    <path
       fill="#1c1431"
       stroke="#1c1431"
       stroke-width="0.09375"
       opacity="0.38"
       d=" M 506.58 268.64 C 506.59 268.60 506.62 268.53 506.64 268.49 C 506.62 268.53 506.59 268.60 506.58 268.64 Z"
       id="path7" />
    <path
       fill="#a072d6"
       stroke="#a072d6"
       stroke-width="0.09375"
       opacity="1.00"
       d=" M 604.78 325.55 C 605.21 325.45 606.07 325.25 606.50 325.15 C 612.55 338.55 619.30 351.65 626.41 364.52 C 627.17 366.12 626.67 368.02 626.44 369.71 C 619.61 380.64 612.36 391.39 606.54 402.92 C 605.59 402.68 604.66 402.44 603.73 402.21 C 600.63 392.98 598.77 383.37 595.77 374.11 C 594.95 370.81 593.68 367.52 593.70 364.09 C 594.34 358.52 596.31 353.22 597.78 347.83 C 599.56 341.08 601.68 334.43 603.72 327.76 C 603.99 327.21 604.52 326.10 604.78 325.55 Z"
       id="path8" />
    <path
       fill="#a072d6"
       stroke="#a072d6"
       stroke-width="0.09375"
       opacity="1.00"
       d=" M 412.42 343.18 C 412.66 342.36 412.90 341.54 413.15 340.72 C 418.53 352.32 421.75 364.75 426.73 376.50 C 427.59 378.91 429.44 381.33 428.40 383.99 C 422.78 398.19 416.50 412.10 409.86 425.84 C 405.94 417.75 401.52 409.90 397.44 401.89 C 395.22 397.67 393.27 393.29 390.60 389.33 C 390.78 387.72 390.69 386.01 391.61 384.60 C 398.84 370.95 404.99 356.74 412.42 343.18 Z"
       id="path9" />
    <path
       fill="#f7d495"
       stroke="#f7d495"
       stroke-width="0.09375"
       opacity="1.00"
       d=" M 511.74 385.67 C 511.82 385.38 511.98 384.79 512.06 384.50 C 517.41 400.86 522.26 417.39 527.37 433.83 C 538.08 467.98 548.65 502.17 559.62 536.23 C 559.34 536.55 558.77 537.19 558.49 537.51 C 545.31 499.09 531.93 460.73 518.61 422.36 C 516.67 416.24 514.79 410.06 511.86 404.32 C 509.60 408.60 508.32 413.28 506.81 417.86 C 499.64 438.09 492.73 458.40 485.76 478.70 C 480.60 494.11 474.75 509.29 469.92 524.81 C 468.94 528.12 467.76 531.37 466.35 534.53 C 466.22 534.01 465.96 532.97 465.83 532.45 C 481.23 483.56 496.53 434.62 511.74 385.67 Z"
       id="path12" />
    <path
       fill="#a072d6"
       stroke="#a072d6"
       stroke-width="0.09375"
       opacity="1.00"
       d=" M 484.15 408.20 C 493.40 400.77 502.15 392.68 511.74 385.67 C 496.53 434.62 481.23 483.56 465.83 532.45 C 465.48 533.16 464.77 534.57 464.42 535.27 C 458.14 526.13 453.15 516.16 447.37 506.69 C 438.36 491.40 429.67 475.92 420.46 460.75 L 420.30 460.49 C 420.86 459.33 421.43 458.18 422.03 457.04 C 421.73 458.39 421.51 459.77 421.28 461.14 C 427.37 455.61 433.74 450.40 440.11 445.20 C 454.62 432.66 469.49 420.57 484.15 408.20 Z"
       id="path13" />
    <path
       fill="#a072d6"
       stroke="#a072d6"
       stroke-width="0.09375"
       opacity="1.00"
       d=" M 513.38 386.08 C 524.24 394.30 534.43 403.36 545.02 411.93 C 560.69 424.96 576.35 437.99 591.89 451.18 C 594.75 453.72 597.66 456.22 600.91 458.26 C 601.20 458.69 601.77 459.55 602.06 459.98 L 603.05 460.15 C 602.49 461.82 601.87 463.48 600.95 465.00 C 586.94 488.04 574.13 511.83 559.82 534.67 C 555.44 523.63 552.54 512.08 548.72 500.84 C 536.87 462.61 524.43 424.54 513.38 386.08 Z"
       id="path14" />
    <path
       fill="#493575"
       stroke="#493575"
       stroke-width="0.09375"
       opacity="0.76"
       d=" M 646.20 389.54 C 647.60 389.55 649.02 389.55 650.45 389.55 C 650.66 391.11 650.86 392.68 651.08 394.25 C 650.55 393.80 649.49 392.90 648.97 392.45 C 648.87 392.38 648.68 392.22 648.59 392.15 C 648.01 391.86 646.86 391.28 646.29 390.99 C 646.26 390.63 646.22 389.91 646.20 389.54 Z"
       id="path15" />
    <path
       fill="#c196ed"
       stroke="#c196ed"
       stroke-width="0.09375"
       opacity="1.00"
       d=" M 648.59 392.15 C 648.68 392.22 648.87 392.38 648.97 392.45 C 647.21 405.27 646.61 418.23 645.52 431.12 C 644.10 446.90 643.16 462.72 641.79 478.51 C 641.06 478.11 639.61 477.31 638.88 476.92 C 640.78 457.55 643.38 438.26 645.32 418.90 C 646.42 409.98 647.02 401.00 648.59 392.15 Z"
       id="path16" />
    <path
       fill="#6233a4"
       stroke="#6233a4"
       stroke-width="0.09375"
       opacity="1.00"
       d=" M 648.97 392.45 C 649.49 392.90 650.55 393.80 651.08 394.25 C 662.35 428.93 673.02 463.80 684.21 498.51 C 690.86 518.71 697.10 539.03 703.84 559.20 C 706.11 565.50 708.22 571.90 709.46 578.50 L 709.06 578.59 C 703.37 579.58 698.09 581.96 692.66 583.81 C 668.66 592.03 644.75 600.50 620.78 608.83 C 611.58 612.06 602.22 614.96 593.38 619.12 L 592.88 618.48 C 594.36 615.32 595.74 612.13 597.16 608.95 C 610.40 580.58 623.81 552.28 636.63 523.72 C 649.72 534.26 663.59 543.81 677.09 553.81 C 685.25 559.58 693.14 565.74 701.47 571.27 C 680.85 553.56 659.45 536.71 638.19 519.77 C 639.62 506.04 640.50 492.25 641.79 478.51 C 643.16 462.72 644.10 446.90 645.52 431.12 C 646.61 418.23 647.21 405.27 648.97 392.45 Z"
       id="path17" />
    <path
       fill="#ebbf66"
       stroke="#ebbf66"
       stroke-width="0.09375"
       opacity="1.00"
       d=" M 506.81 417.86 C 508.32 413.28 509.60 408.60 511.86 404.32 C 514.79 410.06 516.67 416.24 518.61 422.36 C 531.93 460.73 545.31 499.09 558.49 537.51 C 554.09 544.02 550.22 550.87 545.85 557.40 C 543.96 555.58 542.80 553.23 541.83 550.84 C 532.25 530.10 522.67 509.37 513.25 488.56 C 512.39 488.56 511.54 488.56 510.69 488.57 C 503.44 505.13 495.57 521.42 488.09 537.89 C 485.05 544.40 482.22 551.01 478.90 557.39 C 477.45 556.31 476.16 555.03 475.30 553.44 C 472.06 547.92 468.50 542.62 465.33 537.07 C 465.67 536.22 466.01 535.37 466.35 534.53 C 467.76 531.37 468.94 528.12 469.92 524.81 C 474.75 509.29 480.60 494.11 485.76 478.70 C 492.73 458.40 499.64 438.09 506.81 417.86 Z"
       id="path18" />
    <path
       fill="#6233a4"
       stroke="#6233a4"
       stroke-width="0.09375"
       opacity="1.00"
       d=" M 366.59 428.69 C 367.25 428.30 368.56 427.54 369.22 427.15 C 377.24 435.35 386.40 442.32 394.54 450.41 C 401.19 456.06 407.32 462.29 413.97 467.92 C 416.43 465.82 418.54 463.35 420.46 460.75 C 429.67 475.92 438.36 491.40 447.37 506.69 C 453.15 516.16 458.14 526.13 464.42 535.27 C 464.15 535.75 463.92 536.25 463.67 536.74 C 455.92 531.16 448.07 525.70 440.10 520.42 C 439.29 519.84 438.47 519.29 437.65 518.77 C 421.36 507.55 404.88 496.61 388.50 485.52 C 385.77 483.71 383.16 481.69 380.25 480.19 C 376.34 464.72 372.72 449.19 369.25 433.63 C 369.35 435.76 369.49 437.90 369.89 440.01 C 372.50 453.52 375.01 467.06 377.71 480.56 C 380.55 494.65 382.73 508.87 385.98 522.88 C 370.25 534.85 354.70 547.03 338.89 558.90 C 333.29 563.61 327.02 567.46 321.54 572.32 C 332.55 565.54 343.10 558.02 353.82 550.78 C 365.22 542.86 376.81 535.19 387.89 526.83 C 400.47 553.32 412.97 579.87 425.68 606.31 C 427.28 610.33 429.07 614.28 431.07 618.12 C 429.42 620.15 427.76 622.20 426.18 624.29 C 427.41 622.28 428.55 620.23 429.73 618.20 C 411.03 611.00 391.94 604.89 373.08 598.12 C 359.91 593.60 346.79 588.93 333.59 584.49 C 327.51 582.48 321.56 580.01 315.28 578.64 C 319.17 583.18 323.90 586.90 328.36 590.85 C 351.97 613.29 376.25 635.03 400.08 657.25 C 393.38 665.82 387.24 674.81 380.63 683.45 C 379.11 685.42 377.72 687.49 376.50 689.66 C 385.67 679.99 394.03 669.56 402.76 659.49 C 405.02 660.61 407.58 660.43 410.03 660.45 C 420.21 660.32 430.39 660.38 440.56 660.52 C 428.68 662.08 416.66 660.67 404.72 660.99 C 420.68 677.12 436.88 693.04 452.98 709.04 C 471.63 727.49 490.10 746.12 508.89 764.41 C 510.26 765.71 512.03 765.90 513.82 765.53 C 522.61 757.44 530.68 748.59 539.32 740.33 C 565.94 713.88 592.72 687.59 619.17 660.98 C 607.92 660.65 596.59 662.11 585.41 660.53 C 596.63 660.21 607.87 660.61 619.08 660.26 C 619.60 660.00 620.64 659.49 621.16 659.23 C 630.01 668.98 638.30 679.25 647.15 689.00 C 640.11 678.10 632.02 667.90 624.33 657.46 C 624.21 657.31 623.97 656.99 623.85 656.84 C 647.75 634.81 671.90 613.06 695.64 590.86 C 700.14 587.23 704.37 583.28 708.47 579.20 C 706.45 586.59 702.09 593.02 698.97 599.96 C 685.67 625.99 672.65 652.16 659.25 678.15 C 656.59 683.71 653.99 689.36 650.33 694.35 C 636.03 701.14 622.33 709.09 608.17 716.17 C 577.27 732.11 546.87 749.04 516.07 765.15 C 513.63 766.99 510.08 766.92 507.53 765.32 C 490.46 756.51 473.75 747.03 456.70 738.17 C 442.11 730.11 427.17 722.71 412.51 714.77 C 400.54 708.84 389.09 701.92 377.10 696.04 C 371.20 693.61 369.20 687.02 366.39 681.86 C 351.59 653.40 337.18 624.75 322.83 596.06 C 320.33 590.94 317.38 586.04 315.19 580.77 C 313.49 577.36 315.58 573.74 316.33 570.36 C 327.43 538.52 338.76 506.76 349.99 474.96 C 355.76 459.62 360.68 443.97 366.59 428.69 Z"
       id="path19" />
    <path
       fill="#c196ed"
       stroke="#c196ed"
       stroke-width="0.09375"
       opacity="1.00"
       d=" M 369.89 440.01 C 369.49 437.90 369.35 435.76 369.25 433.63 C 372.72 449.19 376.34 464.72 380.25 480.19 C 379.61 480.28 378.34 480.46 377.71 480.56 C 375.01 467.06 372.50 453.52 369.89 440.01 Z"
       id="path20" />
    <path
       fill="#be90a9"
       stroke="#be90a9"
       stroke-width="0.09375"
       opacity="1.00"
       d=" M 588.44 514.33 C 605.25 501.85 622.12 489.45 638.88 476.92 C 638.69 477.76 638.52 478.62 638.38 479.48 C 626.77 486.11 616.84 495.22 605.86 502.79 C 597.76 509.04 589.29 514.79 581.28 521.15 C 575.57 525.62 569.21 529.31 564.18 534.60 C 565.93 534.50 567.71 534.43 569.47 534.24 C 566.62 534.77 563.81 535.52 561.03 536.29 C 561.36 538.29 561.70 540.31 562.43 542.21 C 567.55 554.83 572.27 567.60 577.79 580.05 C 582.51 590.59 585.83 601.69 590.59 612.22 C 591.16 613.39 592.02 614.39 592.81 615.44 C 594.29 613.29 595.80 611.17 597.16 608.95 C 595.74 612.13 594.36 615.32 592.88 618.48 L 592.31 619.62 C 585.75 606.29 581.51 591.98 575.42 578.44 C 570.85 567.86 566.64 557.13 562.45 546.40 C 561.62 544.34 560.82 542.25 559.64 540.36 C 558.16 540.26 557.56 541.75 556.82 542.73 C 553.21 548.27 550.03 554.10 545.89 559.27 C 541.69 556.57 540.71 551.33 538.57 547.17 C 531.70 532.72 525.02 518.19 518.22 503.72 C 516.37 499.94 515.01 495.89 512.62 492.41 C 511.00 491.78 510.61 493.78 509.90 494.77 C 503.82 506.57 498.74 518.84 493.01 530.81 C 490.02 537.75 486.46 544.43 483.53 551.40 C 482.37 554.25 480.76 556.88 478.86 559.30 C 472.66 554.15 469.93 546.13 464.88 539.97 C 458.10 553.55 453.37 568.05 447.15 581.90 C 441.84 594.29 437.63 607.17 431.68 619.27 L 431.07 618.12 C 429.07 614.28 427.28 610.33 425.68 606.31 C 427.55 609.13 428.58 612.97 431.97 614.34 C 436.60 605.26 439.80 595.56 443.48 586.09 C 447.11 578.82 449.49 571.03 452.84 563.64 C 456.68 555.12 459.80 546.30 463.24 537.61 L 463.67 536.74 C 463.92 536.25 464.15 535.75 464.42 535.27 C 464.77 534.57 465.48 533.16 465.83 532.45 C 465.96 532.97 466.22 534.01 466.35 534.53 C 466.01 535.37 465.67 536.22 465.33 537.07 C 468.50 542.62 472.06 547.92 475.30 553.44 C 476.16 555.03 477.45 556.31 478.90 557.39 C 482.22 551.01 485.05 544.40 488.09 537.89 C 495.57 521.42 503.44 505.13 510.69 488.57 C 511.54 488.56 512.39 488.56 513.25 488.56 C 522.67 509.37 532.25 530.10 541.83 550.84 C 542.80 553.23 543.96 555.58 545.85 557.40 C 550.22 550.87 554.09 544.02 558.49 537.51 C 558.77 537.19 559.34 536.55 559.62 536.23 C 568.94 528.56 578.82 521.61 588.44 514.33 Z"
       id="path21" />
    <path
       fill="#f7d495"
       stroke="#f7d495"
       stroke-width="0.09375"
       opacity="1.00"
       d=" M 638.88 476.92 C 639.61 477.31 641.06 478.11 641.79 478.51 C 640.50 492.25 639.62 506.04 638.19 519.77 C 637.89 520.43 637.29 521.75 637.00 522.41 C 636.58 522.44 635.76 522.51 635.35 522.54 C 627.53 522.83 619.96 524.99 612.29 526.33 C 598.00 528.88 583.81 531.99 569.47 534.24 C 575.16 531.93 581.24 530.87 587.14 529.22 C 602.94 524.88 618.90 521.13 634.63 516.54 C 636.30 504.23 637.25 491.84 638.38 479.48 C 638.52 478.62 638.69 477.76 638.88 476.92 Z"
       id="path22" />
    <path
       fill="#f7d495"
       stroke="#f7d495"
       stroke-width="0.09375"
       opacity="1.00"
       d=" M 377.71 480.56 C 378.34 480.46 379.61 480.28 380.25 480.19 C 383.16 481.69 385.77 483.71 388.50 485.52 C 404.88 496.61 421.36 507.55 437.65 518.77 C 431.80 517.12 427.60 512.45 422.52 509.40 C 408.44 500.58 395.22 490.46 381.04 481.82 C 383.25 493.64 385.91 505.37 388.76 517.05 C 389.13 518.37 389.35 519.80 390.09 521.00 C 393.89 522.58 398.04 523.08 402.03 524.02 C 414.75 526.42 427.36 529.36 440.06 531.91 C 446.42 533.15 452.66 535.10 459.16 535.49 C 453.72 529.32 445.28 526.84 440.10 520.42 C 448.07 525.70 455.92 531.16 463.67 536.74 L 463.24 537.61 C 455.62 535.61 447.76 534.88 440.00 533.63 C 429.70 531.98 419.35 530.68 409.03 529.18 C 402.41 528.26 395.85 526.82 389.15 526.57 C 391.38 534.18 395.78 540.88 398.75 548.18 C 405.74 563.10 412.94 577.92 419.95 592.84 C 422.04 597.25 424.71 601.46 425.68 606.31 C 412.97 579.87 400.47 553.32 387.89 526.83 C 387.21 525.52 386.55 524.22 385.98 522.88 C 382.73 508.87 380.55 494.65 377.71 480.56 Z"
       id="path23" />
    <path
       fill="#dda74c"
       stroke="#dda74c"
       stroke-width="0.09375"
       opacity="1.00"
       d=" M 605.86 502.79 C 616.84 495.22 626.77 486.11 638.38 479.48 C 637.25 491.84 636.30 504.23 634.63 516.54 C 618.90 521.13 602.94 524.88 587.14 529.22 C 581.24 530.87 575.16 531.93 569.47 534.24 C 567.71 534.43 565.93 534.50 564.18 534.60 C 569.21 529.31 575.57 525.62 581.28 521.15 C 589.29 514.79 597.76 509.04 605.86 502.79 Z"
       id="path24" />
    <path
       fill="#dda74c"
       stroke="#dda74c"
       stroke-width="0.09375"
       opacity="1.00"
       d=" M 381.04 481.82 C 395.22 490.46 408.44 500.58 422.52 509.40 C 427.60 512.45 431.80 517.12 437.65 518.77 C 438.47 519.29 439.29 519.84 440.10 520.42 C 445.28 526.84 453.72 529.32 459.16 535.49 C 452.66 535.10 446.42 533.15 440.06 531.91 C 427.36 529.36 414.75 526.42 402.03 524.02 C 398.04 523.08 393.89 522.58 390.09 521.00 C 389.35 519.80 389.13 518.37 388.76 517.05 C 385.91 505.37 383.25 493.64 381.04 481.82 Z"
       id="path25" />
    <path
       fill="#c196ed"
       stroke="#c196ed"
       stroke-width="0.09375"
       opacity="1.00"
       d=" M 509.90 494.77 C 510.61 493.78 511.00 491.78 512.62 492.41 C 515.01 495.89 516.37 499.94 518.22 503.72 C 525.02 518.19 531.70 532.72 538.57 547.17 C 540.71 551.33 541.69 556.57 545.89 559.27 C 550.03 554.10 553.21 548.27 556.82 542.73 C 557.56 541.75 558.16 540.26 559.64 540.36 C 560.82 542.25 561.62 544.34 562.45 546.40 C 566.64 557.13 570.85 567.86 575.42 578.44 C 581.51 591.98 585.75 606.29 592.31 619.62 C 586.13 631.18 579.81 642.65 573.45 654.11 C 572.29 656.22 571.16 658.36 570.01 660.48 C 559.37 679.47 549.25 698.75 538.83 717.87 C 530.43 733.71 521.38 749.26 513.82 765.53 C 512.03 765.90 510.26 765.71 508.89 764.41 C 508.31 760.44 506.56 756.81 504.52 753.40 C 487.56 722.50 471.11 691.32 453.96 660.52 C 453.23 659.21 452.53 657.90 451.83 656.59 C 448.98 651.48 446.39 646.22 443.23 641.30 C 439.83 633.73 435.37 626.70 431.68 619.27 C 437.63 607.17 441.84 594.29 447.15 581.90 C 453.37 568.05 458.10 553.55 464.88 539.97 C 469.93 546.13 472.66 554.15 478.86 559.30 C 480.76 556.88 482.37 554.25 483.53 551.40 C 486.46 544.43 490.02 537.75 493.01 530.81 C 498.74 518.84 503.82 506.57 509.90 494.77 M 505.16 556.25 C 504.04 556.79 503.24 557.63 502.77 558.77 C 494.06 576.33 485.16 593.81 476.37 611.34 C 474.99 614.33 472.23 617.69 474.09 621.08 C 485.94 644.73 498.48 668.08 510.23 691.77 C 511.01 691.93 512.58 692.27 513.36 692.44 C 515.80 686.23 519.48 680.59 522.42 674.61 C 530.63 657.93 539.37 641.52 547.90 625.01 C 549.78 621.75 550.46 617.56 548.83 614.07 C 537.54 591.68 526.25 569.28 515.19 546.78 C 514.45 545.25 513.47 543.85 512.08 542.87 C 509.39 547.12 507.36 551.73 505.16 556.25 Z"
       id="path26" />
    <path
       fill="#a072d6"
       stroke="#a072d6"
       stroke-width="0.09375"
       opacity="1.00"
       d=" M 638.19 519.77 C 659.45 536.71 680.85 553.56 701.47 571.27 C 693.14 565.74 685.25 559.58 677.09 553.81 C 663.59 543.81 649.72 534.26 636.63 523.72 C 636.31 523.42 635.67 522.83 635.35 522.54 C 635.76 522.51 636.58 522.44 637.00 522.41 C 637.29 521.75 637.89 520.43 638.19 519.77 Z"
       id="path27" />
    <path
       fill="#dda74c"
       stroke="#dda74c"
       stroke-width="0.09375"
       opacity="1.00"
       d=" M 612.29 526.33 C 619.96 524.99 627.53 522.83 635.35 522.54 C 635.67 522.83 636.31 523.42 636.63 523.72 C 623.81 552.28 610.40 580.58 597.16 608.95 C 595.80 611.17 594.29 613.29 592.81 615.44 C 592.02 614.39 591.16 613.39 590.59 612.22 C 585.83 601.69 582.51 590.59 577.79 580.05 C 572.27 567.60 567.55 554.83 562.43 542.21 C 561.70 540.31 561.36 538.29 561.03 536.29 C 563.81 535.52 566.62 534.77 569.47 534.24 C 583.81 531.99 598.00 528.88 612.29 526.33 Z"
       id="path28" />
    <path
       fill="#a072d6"
       stroke="#a072d6"
       stroke-width="0.09375"
       opacity="1.00"
       d=" M 338.89 558.90 C 354.70 547.03 370.25 534.85 385.98 522.88 C 386.55 524.22 387.21 525.52 387.89 526.83 C 376.81 535.19 365.22 542.86 353.82 550.78 C 343.10 558.02 332.55 565.54 321.54 572.32 C 327.02 567.46 333.29 563.61 338.89 558.90 Z"
       id="path29" />
    <path
       fill="#dda74c"
       stroke="#dda74c"
       stroke-width="0.09375"
       opacity="1.00"
       d=" M 389.15 526.57 C 395.85 526.82 402.41 528.26 409.03 529.18 C 419.35 530.68 429.70 531.98 440.00 533.63 C 447.76 534.88 455.62 535.61 463.24 537.61 C 459.80 546.30 456.68 555.12 452.84 563.64 C 449.49 571.03 447.11 578.82 443.48 586.09 C 439.80 595.56 436.60 605.26 431.97 614.34 C 428.58 612.97 427.55 609.13 425.68 606.31 C 424.71 601.46 422.04 597.25 419.95 592.84 C 412.94 577.92 405.74 563.10 398.75 548.18 C 395.78 540.88 391.38 534.18 389.15 526.57 Z"
       id="path30" />
    <path
       fill="#f7d495"
       stroke="#f7d495"
       stroke-width="0.09375"
       opacity="1.00"
       d=" M 505.16 556.25 C 507.36 551.73 509.39 547.12 512.08 542.87 C 524.24 568.09 536.96 593.04 549.48 618.09 C 547.29 624.59 543.69 630.47 540.56 636.55 C 532.17 652.53 524.11 668.69 515.73 684.68 C 514.30 687.09 513.51 690.21 510.86 691.61 C 510.34 689.40 509.66 687.25 508.57 685.28 C 499.03 667.12 489.85 648.78 480.34 630.61 C 478.48 626.72 476.13 623.04 474.78 618.93 C 475.09 615.57 477.33 612.74 478.67 609.71 C 487.44 591.86 496.66 574.23 505.16 556.25 M 511.66 552.94 C 503.17 571.15 493.80 588.93 484.95 606.98 C 483.12 610.94 480.53 614.61 479.29 618.80 C 480.53 622.57 482.74 625.92 484.46 629.48 C 493.38 646.65 502.17 663.88 511.04 681.07 C 511.60 682.01 512.21 681.91 512.86 680.78 C 523.08 661.05 533.51 641.41 543.64 621.63 C 544.35 620.17 545.36 618.45 544.24 616.92 C 535.47 599.63 526.69 582.34 518.05 564.99 C 515.92 560.97 514.50 556.53 511.66 552.94 Z"
       id="path31" />
    <path
       fill="#be90a9"
       stroke="#be90a9"
       stroke-width="0.09375"
       opacity="1.00"
       d=" M 512.08 542.87 C 513.47 543.85 514.45 545.25 515.19 546.78 C 526.25 569.28 537.54 591.68 548.83 614.07 C 550.46 617.56 549.78 621.75 547.90 625.01 C 539.37 641.52 530.63 657.93 522.42 674.61 C 519.48 680.59 515.80 686.23 513.36 692.44 C 512.58 692.27 511.01 691.93 510.23 691.77 C 498.48 668.08 485.94 644.73 474.09 621.08 C 472.23 617.69 474.99 614.33 476.37 611.34 C 485.16 593.81 494.06 576.33 502.77 558.77 C 503.24 557.63 504.04 556.79 505.16 556.25 C 496.66 574.23 487.44 591.86 478.67 609.71 C 477.33 612.74 475.09 615.57 474.78 618.93 C 476.13 623.04 478.48 626.72 480.34 630.61 C 489.85 648.78 499.03 667.12 508.57 685.28 C 509.66 687.25 510.34 689.40 510.86 691.61 C 513.51 690.21 514.30 687.09 515.73 684.68 C 524.11 668.69 532.17 652.53 540.56 636.55 C 543.69 630.47 547.29 624.59 549.48 618.09 C 536.96 593.04 524.24 568.09 512.08 542.87 Z"
       id="path32" />
    <path
       fill="#dda74c"
       stroke="#dda74c"
       stroke-width="0.09375"
       opacity="1.00"
       d=" M 511.66 552.94 C 514.50 556.53 515.92 560.97 518.05 564.99 C 526.69 582.34 535.47 599.63 544.24 616.92 C 545.36 618.45 544.35 620.17 543.64 621.63 C 533.51 641.41 523.08 661.05 512.86 680.78 C 512.21 681.91 511.60 682.01 511.04 681.07 C 502.17 663.88 493.38 646.65 484.46 629.48 C 482.74 625.92 480.53 622.57 479.29 618.80 C 480.53 614.61 483.12 610.94 484.95 606.98 C 493.80 588.93 503.17 571.15 511.66 552.94 Z"
       id="path33" />
    <path
       fill="#a072d6"
       stroke="#a072d6"
       stroke-width="0.09375"
       opacity="1.00"
       d=" M 315.28 578.64 C 321.56 580.01 327.51 582.48 333.59 584.49 C 346.79 588.93 359.91 593.60 373.08 598.12 C 391.94 604.89 411.03 611.00 429.73 618.20 C 428.55 620.23 427.41 622.28 426.18 624.29 C 426.07 624.44 425.85 624.75 425.74 624.90 C 421.11 627.89 418.40 632.81 414.81 636.84 C 410.59 641.69 406.71 646.83 402.23 651.45 C 393.72 645.17 386.09 637.82 377.93 631.12 C 364.82 620.59 352.36 609.30 339.33 598.67 C 335.75 595.95 332.70 592.38 328.36 590.85 C 323.90 586.90 319.17 583.18 315.28 578.64 Z"
       id="path34" />
    <path
       fill="#a072d6"
       stroke="#a072d6"
       stroke-width="0.09375"
       opacity="1.00"
       d=" M 692.66 583.81 C 698.09 581.96 703.37 579.58 709.06 578.59 L 708.47 579.20 C 704.37 583.28 700.14 587.23 695.64 590.86 C 694.16 591.59 692.65 592.26 691.34 593.26 C 677.18 604.38 663.87 616.52 649.85 627.81 C 639.90 635.75 630.91 644.82 620.70 652.44 C 616.94 647.53 612.87 642.87 608.80 638.22 C 603.84 631.71 598.54 625.46 593.38 619.12 C 602.22 614.96 611.58 612.06 620.78 608.83 C 644.75 600.50 668.66 592.03 692.66 583.81 Z"
       id="path35" />
    <path
       fill="#c196ed"
       stroke="#c196ed"
       stroke-width="0.09375"
       opacity="1.00"
       d=" M 328.36 590.85 C 332.70 592.38 335.75 595.95 339.33 598.67 C 352.36 609.30 364.82 620.59 377.93 631.12 C 386.09 637.82 393.72 645.17 402.23 651.45 C 402.54 651.68 403.18 652.15 403.49 652.38 C 402.56 654.25 401.87 656.22 401.15 658.19 C 400.89 657.95 400.35 657.48 400.08 657.25 C 376.25 635.03 351.97 613.29 328.36 590.85 Z"
       id="path36" />
    <path
       fill="#c196ed"
       stroke="#c196ed"
       stroke-width="0.09375"
       opacity="1.00"
       d=" M 691.34 593.26 C 692.65 592.26 694.16 591.59 695.64 590.86 C 671.90 613.06 647.75 634.81 623.85 656.84 C 622.77 655.39 621.76 653.90 620.70 652.44 C 630.91 644.82 639.90 635.75 649.85 627.81 C 663.87 616.52 677.18 604.38 691.34 593.26 Z"
       id="path37" />
    <path
       fill="#f7d495"
       stroke="#f7d495"
       stroke-width="0.09375"
       opacity="1.00"
       d=" M 426.18 624.29 C 427.76 622.20 429.42 620.15 431.07 618.12 L 431.68 619.27 C 435.37 626.70 439.83 633.73 443.23 641.30 C 437.59 635.69 434.85 627.93 431.08 621.05 C 427.66 624.95 425.31 630.02 420.50 632.46 C 422.35 630.01 424.05 627.45 425.74 624.90 C 425.85 624.75 426.07 624.44 426.18 624.29 Z"
       id="path38" />
    <path
       fill="#ebbf66"
       stroke="#ebbf66"
       stroke-width="0.09375"
       opacity="1.00"
       d=" M 592.31 619.62 L 592.88 618.48 L 593.38 619.12 C 598.54 625.46 603.84 631.71 608.80 638.22 C 610.81 645.65 618.25 649.91 620.61 657.23 C 614.38 657.40 608.23 658.59 601.99 658.54 C 592.65 658.55 583.30 658.73 573.96 658.34 C 573.79 656.93 573.61 655.51 573.45 654.11 C 579.81 642.65 586.13 631.18 592.31 619.62 Z"
       id="path39" />
    <path
       fill="#ebbf66"
       stroke="#ebbf66"
       stroke-width="0.09375"
       opacity="1.00"
       d=" M 420.50 632.46 C 425.31 630.02 427.66 624.95 431.08 621.05 C 434.85 627.93 437.59 635.69 443.23 641.30 C 446.39 646.22 448.98 651.48 451.83 656.59 C 451.44 657.04 450.66 657.93 450.27 658.37 C 434.96 658.41 419.55 659.40 404.35 657.11 C 406.28 649.34 413.97 644.92 416.46 637.43 C 417.73 635.71 419.07 634.04 420.50 632.46 Z"
       id="path40" />
    <path
       fill="#be90a9"
       stroke="#be90a9"
       stroke-width="0.09375"
       opacity="1.00"
       d=" M 414.81 636.84 C 418.40 632.81 421.11 627.89 425.74 624.90 C 424.05 627.45 422.35 630.01 420.50 632.46 C 419.07 634.04 417.73 635.71 416.46 637.43 C 411.79 642.10 407.78 647.37 403.49 652.38 C 403.18 652.15 402.54 651.68 402.23 651.45 C 406.71 646.83 410.59 641.69 414.81 636.84 Z"
       id="path41" />
    <path
       fill="#f7d495"
       stroke="#f7d495"
       stroke-width="0.09375"
       opacity="1.00"
       d=" M 403.49 652.38 C 407.78 647.37 411.79 642.10 416.46 637.43 C 413.97 644.92 406.28 649.34 404.35 657.11 C 419.55 659.40 434.96 658.41 450.27 658.37 C 450.66 657.93 451.44 657.04 451.83 656.59 C 452.53 657.90 453.23 659.21 453.96 660.52 C 449.49 660.58 445.03 660.38 440.56 660.52 C 430.39 660.38 420.21 660.32 410.03 660.45 C 407.58 660.43 405.02 660.61 402.76 659.49 C 402.36 659.16 401.56 658.51 401.15 658.19 C 401.87 656.22 402.56 654.25 403.49 652.38 Z"
       id="path42" />
    <path
       fill="#f7d495"
       stroke="#f7d495"
       stroke-width="0.09375"
       opacity="1.00"
       d=" M 608.80 638.22 C 612.87 642.87 616.94 647.53 620.70 652.44 C 621.76 653.90 622.77 655.39 623.85 656.84 C 623.97 656.99 624.21 657.31 624.33 657.46 C 622.98 657.33 622.15 658.54 621.16 659.23 C 620.64 659.49 619.60 660.00 619.08 660.26 C 607.87 660.61 596.63 660.21 585.41 660.53 C 580.27 660.35 575.14 660.64 570.01 660.48 C 571.16 658.36 572.29 656.22 573.45 654.11 C 573.61 655.51 573.79 656.93 573.96 658.34 C 583.30 658.73 592.65 658.55 601.99 658.54 C 608.23 658.59 614.38 657.40 620.61 657.23 C 618.25 649.91 610.81 645.65 608.80 638.22 Z"
       id="path43" />
    <path
       id="path44"
       style="fill:#5f54c5;fill-opacity:1"
       d="m 728.17,715.18 c 18.97,-20.18 35.39,-42.78 48.07,-67.43 -0.62,4.01 -2.99,7.48 -3.79,11.38 1.06,2.78 0.2,5.54 -1.08,8.07 0.32,0.1 0.97,0.32 1.29,0.43 3.23,-0.72 6.52,0.11 9.78,-0.31 7.83,1.94 16.18,1.54 23.93,-0.58 3.09,-0.84 6.9,3.61 8.84,-0.4 4.9,0.48 9.76,1.55 14.69,1.47 2.75,0.1 4.59,-2.13 6.36,-3.88 -3.25,-0.16 -6.51,-0.35 -9.7,-1 4.39,-0.04 8.73,-0.73 13.11,-0.89 -3.86,9.56 -9.04,18.54 -14.09,27.52 -7.55,12.51 -15.37,24.9 -24.35,36.45 -5.65,8.31 -12.47,15.71 -18.99,23.33 -15.6,18.69 -33.97,34.9 -53.29,49.64 -46.3,35.51 -101.41,59.14 -158.81,69.24 -13.34,1.65 -26.72,3.05 -40.11,4.22 -15.11,0.7 -30.28,0.71 -45.35,-0.6 -7.27,-0.61 -14.51,-1.56 -21.77,-2.25 -35.82,-4.88 -70.69,-15.78 -103.46,-31 -51.33,-24.64 -97.14,-61 -132.01,-106.08 -15.99,-20.55 -30.25,-42.59 -41.23,-66.24 1.89,0.53 3.86,0.94 5.63,1.84 0.72,1.16 1.08,2.51 1.57,3.79 2.06,-2.63 2.63,-6.19 4.7,-8.7 5.49,-2.71 12.06,-4.77 18.11,-2.68 2.57,1.08 5.35,0.91 8.05,0.53 2.45,0.35 4.9,0.71 7.35,1.08 -0.81,1.89 -1.63,3.78 -2.45,5.68 5.28,0.01 10.59,-0.64 15.82,0.25 3.43,0.57 6.93,0.48 10.36,-0.01 -1.57,-2.02 -3.77,-3.3 -6.03,-4.38 1.11,-2.1 2.24,-4.18 3.38,-6.25 35.77,62.9 95.01,112.06 163.32,135.83 16.97,5.62 34.24,10.62 52.01,12.93 24.14,3.91 48.78,3.92 73.09,1.77 23.83,-2.14 47.16,-8.1 69.75,-15.81 35.39,-12.61 68.02,-32.46 96.37,-57.03 7.27,-6.32 14.64,-12.6 20.93,-19.93 z M 195.18,370.79 c 3.58,0.73 7.28,0.29 10.2,-2.04 0.97,0.96 1.94,1.92 2.91,2.89 -0.58,0.62 -1.15,1.23 -1.72,1.86 1.92,1.93 4.54,1.73 7.04,1.38 0.66,0.46 1.33,0.94 2.01,1.41 -0.35,0.34 -1.05,1.03 -1.39,1.37 1.46,0.96 3.07,1.86 4.87,1.23 0.35,0.9 0.71,1.81 1.07,2.72 0.5,-0.36 1,-0.71 1.5,-1.06 0.13,0.55 0.38,1.64 0.51,2.19 1.85,-0.78 3.69,-1.55 5.54,-2.32 2.61,3.84 5.68,7.46 9.98,9.46 1.9,-2.75 3.88,-5.45 6.17,-7.91 -1.91,5.24 -4.72,10.09 -6.7,15.3 -10.74,25.25 -17.63,52.13 -20.56,79.41 -2.86,18.26 -2.91,36.86 -1.81,55.27 1.41,10.7 2.29,21.47 4.04,32.12 6.03,32.7 17.36,64.46 33.86,93.35 -1.14,2.07 -2.27,4.15 -3.38,6.25 2.26,1.08 4.46,2.36 6.03,4.38 -3.43,0.49 -6.93,0.58 -10.36,0.01 -5.23,-0.89 -10.54,-0.24 -15.82,-0.25 0.82,-1.9 1.64,-3.79 2.45,-5.68 -2.45,-0.37 -4.9,-0.73 -7.35,-1.08 -2.7,0.38 -5.48,0.55 -8.05,-0.53 -6.05,-2.09 -12.62,-0.03 -18.11,2.68 -2.07,2.51 -2.64,6.07 -4.7,8.7 -0.49,-1.28 -0.85,-2.63 -1.57,-3.79 -1.77,-0.9 -3.74,-1.31 -5.63,-1.84 l -0.24,-0.06 c -8.24,-17.85 -15.71,-36.13 -21.1,-55.06 -3.38,-12.96 -7.25,-25.84 -9.04,-39.14 -2.45,-13.55 -3.82,-27.28 -4.64,-41.02 -1.79,-24.04 0.24,-48.18 3.45,-72.02 4.12,-28.65 11.99,-56.75 22.98,-83.52 0.72,-1.94 1.52,-3.85 2.59,-5.63 -0.25,4.4 -1.52,8.63 -3.5,12.55 2.01,3.29 6.24,1.51 9.35,1.78 4.01,-2.83 8.52,-4.64 13.3,-5.69 -2.7,-1.2 -5.8,-1.19 -8.32,-2.85 1.34,-1.64 2.72,-3.25 4.14,-4.82 z m 642.71,-13.94 c 6.47,13.1 11.94,26.7 16.62,40.54 5.83,19.23 11.6,38.57 14.33,58.53 2.7,22.25 5.41,44.62 4.44,67.08 -0.38,13.42 -2.23,26.72 -3.7,40.04 -5.13,34.18 -14.99,67.66 -29.61,98.99 l -0.3,0.01 c -4.38,0.16 -8.72,0.85 -13.11,0.89 3.19,0.65 6.45,0.84 9.7,1 -1.77,1.75 -3.61,3.98 -6.36,3.88 -4.93,0.08 -9.79,-0.99 -14.69,-1.47 -1.94,4.01 -5.75,-0.44 -8.84,0.4 -7.75,2.12 -16.1,2.52 -23.93,0.58 -3.26,0.42 -6.55,-0.41 -9.78,0.31 -0.32,-0.11 -0.97,-0.33 -1.29,-0.43 1.28,-2.53 2.14,-5.29 1.08,-8.07 0.8,-3.9 3.17,-7.37 3.79,-11.38 2.48,-5.34 5.11,-10.61 7.64,-15.93 7.7,-16.63 13.22,-34.17 17.84,-51.87 4.77,-20.31 6.82,-41.13 7.85,-61.93 0.5,-12.02 -0.63,-24.03 -1.62,-35.99 -3.23,-38.35 -15.28,-75.59 -32.88,-109.7 1.42,1.11 2.76,2.31 4.06,3.56 0.04,-0.69 0.12,-2.06 0.16,-2.75 0.41,1.05 0.82,2.1 1.24,3.17 1.56,-1.76 3.64,-2.89 5.71,-3.93 0.25,-0.85 0.51,-1.69 0.78,-2.52 0.19,1.47 0.38,2.94 0.72,4.39 1.85,0.15 3.08,-1.63 4.54,-2.52 2.07,1.09 4.19,2.18 6.57,2.36 -0.38,-0.54 -1.14,-1.62 -1.52,-2.16 2.23,-0.76 4.49,-1.62 6.9,-1.58 3.44,0 6.46,2.17 9.91,2.18 2.81,0.05 5.63,-0.02 8.45,0.14 -0.5,0.95 -0.99,1.89 -1.48,2.85 1.41,-0.54 2.83,-1.08 4.27,-1.6 5.31,3.21 11.49,0.73 16.69,-1.41 -0.66,-2.21 -1.3,-4.42 -1.92,-6.64 l -2.08,1.51 3.02,-2.52 -1.45,0.5 c -0.6,-2.83 -1.13,-5.69 -1.75,-8.51 z M 466.09,153.83 c 14.87,-2.14 29.9,-2.91 44.91,-3.34 26.61,0.33 53.21,3.11 79.28,8.53 75.13,16.44 143.88,58.56 194.33,116.4 15.27,17.08 28.19,36.11 39.89,55.77 4.66,8.44 9.68,16.74 13.39,25.66 0.62,2.82 1.15,5.68 1.75,8.51 l 1.45,-0.5 -3.02,2.52 2.08,-1.51 c 0.62,2.22 1.26,4.43 1.92,6.64 -5.2,2.14 -11.38,4.62 -16.69,1.41 -1.44,0.52 -2.86,1.06 -4.27,1.6 0.49,-0.96 0.98,-1.9 1.48,-2.85 -2.82,-0.16 -5.64,-0.09 -8.45,-0.14 -3.45,-0.01 -6.47,-2.18 -9.91,-2.18 -2.41,-0.04 -4.67,0.82 -6.9,1.58 0.38,0.54 1.14,1.62 1.52,2.16 -2.38,-0.18 -4.5,-1.27 -6.57,-2.36 -1.46,0.89 -2.69,2.67 -4.54,2.52 -0.34,-1.45 -0.53,-2.92 -0.72,-4.39 -0.27,0.83 -0.53,1.67 -0.78,2.52 -2.07,1.04 -4.15,2.17 -5.71,3.93 -0.42,-1.07 -0.83,-2.12 -1.24,-3.17 -0.04,0.69 -0.12,2.06 -0.16,2.75 -1.3,-1.25 -2.64,-2.45 -4.06,-3.56 -8.41,-16.11 -18.4,-31.41 -29.85,-45.53 -17.79,-23.02 -39.44,-42.99 -63.41,-59.44 -14.74,-10.68 -30.78,-19.41 -47.3,-26.99 -16.23,-8 -33.68,-13.05 -50.99,-18.11 -14.02,-3.38 -28.23,-5.86 -42.55,-7.54 -14.62,-0.81 -29.3,-2.01 -43.93,-0.72 -51.51,2.19 -102.04,18.92 -145.49,46.51 -26.8,17.81 -51.63,39.05 -71.43,64.55 -6.2,7.26 -11.56,15.16 -17.17,22.87 -6.8,11.08 -13.71,22.17 -19.08,34.04 -2.29,2.46 -4.27,5.16 -6.17,7.91 -4.3,-2 -7.37,-5.62 -9.98,-9.46 -1.85,0.77 -3.69,1.54 -5.54,2.32 -0.13,-0.55 -0.38,-1.64 -0.51,-2.19 -0.5,0.35 -1,0.7 -1.5,1.06 -0.36,-0.91 -0.72,-1.82 -1.07,-2.72 -1.8,0.63 -3.41,-0.27 -4.87,-1.23 0.34,-0.34 1.04,-1.03 1.39,-1.37 -0.68,-0.47 -1.35,-0.95 -2.01,-1.41 -2.5,0.35 -5.12,0.55 -7.04,-1.38 0.57,-0.63 1.14,-1.24 1.72,-1.86 -0.97,-0.97 -1.94,-1.93 -2.91,-2.89 -2.92,2.33 -6.62,2.77 -10.2,2.04 -1.42,1.57 -2.8,3.18 -4.14,4.82 2.52,1.66 5.62,1.65 8.32,2.85 -4.78,1.05 -9.29,2.86 -13.3,5.69 -3.11,-0.27 -7.34,1.51 -9.35,-1.78 1.98,-3.92 3.25,-8.15 3.5,-12.55 8.4,-20.9 19.59,-40.66 32.12,-59.38 13.9,-21 30.44,-40.16 48.42,-57.76 15.76,-14.7 32.16,-28.81 50.14,-40.76 41.05,-27.85 87.96,-47.17 136.84,-55.76 6.15,-0.52 12.23,-1.65 18.36,-2.33 z" />
    <path
       fill="#a072d6"
       stroke="#a072d6"
       stroke-width="0.09375"
       opacity="1.00"
       d=" M 621.16 659.23 C 622.15 658.54 622.98 657.33 624.33 657.46 C 632.02 667.90 640.11 678.10 647.15 689.00 C 638.30 679.25 630.01 668.98 621.16 659.23 Z"
       id="path45" />
    <path
       fill="#a072d6"
       stroke="#a072d6"
       stroke-width="0.09375"
       opacity="1.00"
       d=" M 380.63 683.45 C 387.24 674.81 393.38 665.82 400.08 657.25 C 400.35 657.48 400.89 657.95 401.15 658.19 C 401.56 658.51 402.36 659.16 402.76 659.49 C 394.03 669.56 385.67 679.99 376.50 689.66 C 377.72 687.49 379.11 685.42 380.63 683.45 Z"
       id="path46" />
    <path
       fill="#a072d6"
       stroke="#a072d6"
       stroke-width="0.09375"
       opacity="1.00"
       d=" M 404.72 660.99 C 416.66 660.67 428.68 662.08 440.56 660.52 C 445.03 660.38 449.49 660.58 453.96 660.52 C 471.11 691.32 487.56 722.50 504.52 753.40 C 506.56 756.81 508.31 760.44 508.89 764.41 C 490.10 746.12 471.63 727.49 452.98 709.04 C 436.88 693.04 420.68 677.12 404.72 660.99 Z"
       id="path47" />
    <path
       fill="#a072d6"
       stroke="#a072d6"
       stroke-width="0.09375"
       opacity="1.00"
       d=" M 538.83 717.87 C 549.25 698.75 559.37 679.47 570.01 660.48 C 575.14 660.64 580.27 660.35 585.41 660.53 C 596.59 662.11 607.92 660.65 619.17 660.98 C 592.72 687.59 565.94 713.88 539.32 740.33 C 530.68 748.59 522.61 757.44 513.82 765.53 C 521.38 749.26 530.43 733.71 538.83 717.87 Z"
       id="path48" />
  </g>
</svg>
